<svg width="25" height="30" viewBox="0 0 25 30" fill="none" xmlns="http://www.w3.org/2000/svg">
<g opacity="0.3">
<path opacity="0.3" d="M17.7123 6.45383C17.0521 6.45319 16.419 6.19061 15.9521 5.72372C15.4853 5.25684 15.2227 4.62379 15.222 3.96352V0.50586H4.0954C3.66851 0.505701 3.24576 0.589632 2.85132 0.752886C2.45688 0.91614 2.09848 1.15551 1.79656 1.45731C1.49465 1.75912 1.25515 2.11744 1.09175 2.51182C0.92835 2.9062 0.844238 3.32891 0.844238 3.7558V23.3473C0.844238 23.7742 0.92835 24.1969 1.09175 24.5913C1.25515 24.9857 1.49465 25.344 1.79656 25.6458C2.09848 25.9476 2.45688 26.1869 2.85132 26.3502C3.24576 26.5134 3.66851 26.5974 4.0954 26.5972H17.4527C17.8795 26.5972 18.3021 26.5132 18.6964 26.3499C19.0907 26.1865 19.449 25.9471 19.7507 25.6453C20.0525 25.3436 20.2919 24.9853 20.4552 24.591C20.6186 24.1967 20.7026 23.7741 20.7026 23.3473V6.45383H17.7123Z" fill="#957AFF"/>
</g>
<path d="M20.7023 6.45383H17.712C17.0517 6.45319 16.4187 6.19061 15.9518 5.72372C15.4849 5.25684 15.2223 4.62379 15.2217 3.96352V0.505859L20.7023 6.45383Z" fill="#957AFF"/>
<path d="M16.6169 10.6184H4.14846C4.02867 10.6184 3.91379 10.5708 3.82908 10.4861C3.74437 10.4014 3.69678 10.2866 3.69678 10.1668C3.69662 10.1073 3.70819 10.0485 3.73082 9.99353C3.75345 9.93859 3.78669 9.88865 3.82865 9.84658C3.87061 9.80451 3.92046 9.77114 3.97534 9.74836C4.03022 9.72559 4.08904 9.71387 4.14846 9.71387H16.6169C16.737 9.71387 16.8522 9.76159 16.9371 9.84652C17.022 9.93145 17.0698 10.0466 17.0698 10.1668C17.0694 10.2867 17.0216 10.4016 16.9367 10.4862C16.8518 10.5709 16.7368 10.6184 16.6169 10.6184Z" fill="#957AFF"/>
<path d="M16.6168 13.3196H4.14839C4.02859 13.3196 3.91371 13.272 3.829 13.1873C3.7443 13.1026 3.6967 12.9877 3.6967 12.8679C3.69654 12.8085 3.70812 12.7496 3.73074 12.6947C3.75337 12.6398 3.78662 12.5898 3.82857 12.5478C3.87053 12.5057 3.92038 12.4723 3.97526 12.4495C4.03014 12.4268 4.08897 12.415 4.14839 12.415H16.6168C16.7369 12.415 16.8521 12.4627 16.937 12.5477C17.022 12.6326 17.0697 12.7478 17.0697 12.8679C17.0694 12.9878 17.0215 13.1027 16.9366 13.1874C16.8517 13.272 16.7367 13.3196 16.6168 13.3196Z" fill="#957AFF"/>
<path d="M16.6168 16.0218H4.14839C4.08897 16.0218 4.03014 16.01 3.97526 15.9873C3.92038 15.9645 3.87053 15.9311 3.82857 15.889C3.78662 15.847 3.75337 15.797 3.73074 15.7421C3.70812 15.6872 3.69654 15.6283 3.6967 15.5689C3.6967 15.4491 3.7443 15.3342 3.829 15.2495C3.91371 15.1648 4.02859 15.1172 4.14839 15.1172H16.6168C16.7367 15.1172 16.8517 15.1647 16.9366 15.2494C17.0215 15.3341 17.0694 15.449 17.0697 15.5689C17.0697 15.689 17.022 15.8042 16.937 15.8891C16.8521 15.974 16.7369 16.0218 16.6168 16.0218Z" fill="#957AFF"/>
<path d="M11.6991 18.7229H4.14846C4.08904 18.7229 4.03022 18.7112 3.97534 18.6884C3.92046 18.6657 3.87061 18.6323 3.82865 18.5902C3.78669 18.5481 3.75345 18.4982 3.73082 18.4433C3.70819 18.3883 3.69662 18.3295 3.69678 18.27C3.69678 18.1502 3.74437 18.0353 3.82908 17.9506C3.91379 17.8659 4.02867 17.8184 4.14846 17.8184H11.6991C11.8189 17.8184 11.9338 17.8659 12.0185 17.9506C12.1032 18.0353 12.1508 18.1502 12.1508 18.27C12.1509 18.3295 12.1394 18.3883 12.1167 18.4433C12.0941 18.4982 12.0609 18.5481 12.0189 18.5902C11.9769 18.6323 11.9271 18.6657 11.8722 18.6884C11.8173 18.7112 11.7585 18.7229 11.6991 18.7229Z" fill="#957AFF"/>
<path d="M23.0602 21.1113H7.95899C6.88779 21.1113 6.01942 21.9797 6.01942 23.0509V27.5533C6.01942 28.6245 6.88779 29.4928 7.95899 29.4928H23.0602C24.1314 29.4928 24.9998 28.6245 24.9998 27.5533V23.0509C24.9998 21.9797 24.1314 21.1113 23.0602 21.1113Z" fill="#957AFF"/>
<path d="M10.0492 26.2773V27.1554H9.13981V26.2773H10.0492Z" fill="white"/>
<path d="M13.5445 26.2791C13.3933 26.5537 13.1649 26.7779 12.8876 26.924C12.5754 27.0836 12.2284 27.1629 11.8779 27.1547H10.5059V23.5231H11.8779C12.2286 23.5144 12.5762 23.592 12.89 23.7489C13.1662 23.8924 13.3939 24.1142 13.5445 24.3866C13.7007 24.6765 13.7793 25.0018 13.7728 25.3311C13.779 25.6614 13.7004 25.9878 13.5445 26.2791ZM12.6001 26.0967C12.6983 25.996 12.7743 25.8758 12.8234 25.744C12.8725 25.6121 12.8935 25.4715 12.8851 25.3311C12.8936 25.1908 12.8726 25.0503 12.8235 24.9186C12.7744 24.787 12.6983 24.6671 12.6001 24.5666C12.3801 24.3736 12.0927 24.2755 11.8006 24.2936H11.3864V26.3685H11.8018C12.0932 26.386 12.3799 26.2885 12.6001 26.0967Z" fill="white"/>
<path d="M16.9301 23.7055C17.2064 23.8624 17.4348 24.0916 17.5907 24.3685C17.7541 24.6609 17.8374 24.9913 17.8323 25.3262C17.8378 25.662 17.7545 25.9932 17.5907 26.2864C17.4343 26.5643 17.2051 26.7944 16.9277 26.9518C16.6454 27.113 16.3253 27.1964 16.0002 27.1933C15.6751 27.1962 15.355 27.1129 15.0726 26.9518C14.7953 26.7947 14.5664 26.5645 14.4108 26.2864C14.2465 25.9934 14.1632 25.662 14.1693 25.3262C14.163 24.9912 14.2464 24.6605 14.4108 24.3685C14.5672 24.0916 14.796 23.8624 15.0726 23.7055C15.355 23.5444 15.6751 23.4611 16.0002 23.4639C16.326 23.4609 16.6469 23.5442 16.9301 23.7055ZM15.3118 24.5629C15.1336 24.7761 15.043 25.0489 15.0581 25.3262C15.0429 25.6025 15.1336 25.8742 15.3118 26.0859C15.3985 26.1802 15.5049 26.2544 15.6234 26.3032C15.7419 26.352 15.8697 26.3743 15.9977 26.3685C16.1254 26.3739 16.2527 26.3515 16.3707 26.3027C16.4888 26.2539 16.5948 26.1799 16.6813 26.0859C16.8603 25.8745 16.9519 25.6028 16.9373 25.3262C16.9518 25.0501 16.8612 24.7786 16.6837 24.5666C16.597 24.4722 16.4906 24.398 16.3721 24.3492C16.2536 24.3003 16.1258 24.2781 15.9977 24.284C15.87 24.2781 15.7426 24.3 15.6241 24.3482C15.5057 24.3963 15.3991 24.4696 15.3118 24.5629Z" fill="white"/>
<path d="M21.1314 23.8508C21.4377 24.1 21.646 24.4495 21.7195 24.8375H20.7896C20.7269 24.6767 20.617 24.5386 20.4744 24.4414C20.3241 24.3435 20.1477 24.2934 19.9684 24.2976C19.85 24.2938 19.7322 24.3174 19.6244 24.3664C19.5165 24.4154 19.4214 24.4886 19.3464 24.5803C19.1782 24.7954 19.0925 25.0635 19.1048 25.3363C19.0926 25.6079 19.1783 25.875 19.3464 26.0887C19.422 26.1794 19.5173 26.2517 19.6251 26.3001C19.7329 26.3484 19.8503 26.3715 19.9684 26.3676C20.1477 26.3724 20.3243 26.3223 20.4744 26.2239C20.6162 26.1284 20.726 25.9925 20.7896 25.8338H21.7195C21.6448 26.2207 21.4366 26.569 21.1314 26.8181C20.8029 27.069 20.397 27.1971 19.9841 27.1805C19.6587 27.1873 19.3374 27.1064 19.0541 26.9461C18.789 26.792 18.5739 26.5648 18.4346 26.2916C18.2849 25.9919 18.2103 25.6603 18.2172 25.3254C18.2104 24.9905 18.285 24.6589 18.4346 24.3592C18.5739 24.086 18.789 23.8588 19.0541 23.7047C19.3374 23.5445 19.6587 23.4635 19.9841 23.4703C20.3992 23.4594 20.8051 23.594 21.1314 23.8508Z" fill="white"/>
</svg>
