<svg width="28" height="20" viewBox="0 0 28 20" fill="none" xmlns="http://www.w3.org/2000/svg">
<rect width="28" height="20" rx="1.6" fill="white"/>
<mask id="mask0_455_2173" style="mask-type:luminance" maskUnits="userSpaceOnUse" x="0" y="0" width="28" height="20">
<rect width="28" height="20" rx="1.6" fill="white"/>
</mask>
<g mask="url(#mask0_455_2173)">
<rect width="28" height="20" fill="#0A17A7"/>
<path fill-rule="evenodd" clip-rule="evenodd" d="M-1.28226 -1.9165L10.667 6.14335V-1.33317H17.3336V6.1437L29.283 -1.91623L30.7742 0.294532L21.3268 6.66683H28.0003V13.3335H21.3268L30.7739 19.7056L29.2827 21.9164L17.3336 13.8567V21.3335H10.667V13.857L-1.28196 21.9167L-2.77314 19.7059L6.67432 13.3335H0.000295401V6.66683H6.67428L-2.77344 0.294263L-1.28226 -1.9165Z" fill="white"/>
<path d="M18.668 6.33219L31.3333 -2" stroke="#DB1F35" stroke-width="0.533333" stroke-linecap="round"/>
<path d="M20.0132 13.6973L31.367 21.3501" stroke="#DB1F35" stroke-width="0.533333" stroke-linecap="round"/>
<path d="M8.0061 6.31103L-3.83691 -1.67041" stroke="#DB1F35" stroke-width="0.533333" stroke-linecap="round"/>
<path d="M9.29061 13.605L-3.83691 22.3105" stroke="#DB1F35" stroke-width="0.533333" stroke-linecap="round"/>
<path fill-rule="evenodd" clip-rule="evenodd" d="M0 12H12V20H16V12H28V8H16V0H12V8H0V12Z" fill="#E6273E"/>
</g>
</svg>
