<svg width="321" height="140" viewBox="0 0 321 140" fill="none" xmlns="http://www.w3.org/2000/svg">
<g opacity="0.3">
<mask id="path-1-outside-1_2018_11569" maskUnits="userSpaceOnUse" x="117.804" y="14.0743" width="9.86948" height="10.3158" fill="black">
<rect fill="white" x="117.804" y="14.0743" width="9.86948" height="10.3158"/>
<path d="M121.841 19.4206L119.079 18.9956L119.188 17.9908L121.95 18.4157L122.256 15.608L123.372 15.7798L123.067 18.5875L125.755 19.0012L125.646 20.006L122.957 19.5924L122.647 22.4444L121.53 22.2726L121.841 19.4206Z"/>
</mask>
<path d="M121.841 19.4206L119.079 18.9956L119.188 17.9908L121.95 18.4157L122.256 15.608L123.372 15.7798L123.067 18.5875L125.755 19.0012L125.646 20.006L122.957 19.5924L122.647 22.4444L121.53 22.2726L121.841 19.4206Z" fill="#9278FF"/>
<path d="M121.841 19.4206L122.575 19.5336L122.656 18.7947L121.921 18.6817L121.841 19.4206ZM119.079 18.9956L118.344 18.8826L118.264 19.6215L118.998 19.7345L119.079 18.9956ZM119.188 17.9908L119.269 17.2519L118.534 17.1389L118.454 17.8777L119.188 17.9908ZM121.95 18.4157L121.87 19.1546L122.604 19.2676L122.685 18.5287L121.95 18.4157ZM122.256 15.608L122.336 14.8692L121.602 14.7562L121.521 15.495L122.256 15.608ZM123.372 15.7798L124.107 15.8929L124.187 15.154L123.453 15.041L123.372 15.7798ZM123.067 18.5875L122.332 18.4745L122.252 19.2134L122.986 19.3264L123.067 18.5875ZM125.755 19.0012L126.49 19.1142L126.57 18.3753L125.836 18.2623L125.755 19.0012ZM125.646 20.006L125.565 20.7449L126.3 20.8579L126.38 20.1191L125.646 20.006ZM122.957 19.5924L123.038 18.8535L122.303 18.7405L122.223 19.4794L122.957 19.5924ZM122.647 22.4444L122.566 23.1832L123.301 23.2963L123.381 22.5574L122.647 22.4444ZM121.53 22.2726L120.796 22.1596L120.715 22.8984L121.45 23.0115L121.53 22.2726ZM121.921 18.6817L119.159 18.2568L118.998 19.7345L121.76 20.1594L121.921 18.6817ZM119.813 19.1086L119.923 18.1038L118.454 17.8777L118.344 18.8826L119.813 19.1086ZM119.108 18.7296L121.87 19.1546L122.031 17.6769L119.269 17.2519L119.108 18.7296ZM122.685 18.5287L122.99 15.7211L121.521 15.495L121.216 18.3027L122.685 18.5287ZM122.175 16.3469L123.292 16.5187L123.453 15.041L122.336 14.8692L122.175 16.3469ZM122.638 15.6668L122.332 18.4745L123.801 18.7005L124.107 15.8929L122.638 15.6668ZM122.986 19.3264L125.675 19.74L125.836 18.2623L123.147 17.8487L122.986 19.3264ZM125.021 18.8882L124.911 19.893L126.38 20.1191L126.49 19.1142L125.021 18.8882ZM125.726 19.2672L123.038 18.8535L122.877 20.3312L125.565 20.7449L125.726 19.2672ZM122.223 19.4794L121.912 22.3314L123.381 22.5574L123.692 19.7054L122.223 19.4794ZM122.727 21.7055L121.611 21.5337L121.45 23.0115L122.566 23.1832L122.727 21.7055ZM122.265 22.3856L122.575 19.5336L121.106 19.3076L120.796 22.1596L122.265 22.3856Z" fill="#9278FF" mask="url(#path-1-outside-1_2018_11569)"/>
<mask id="path-3-outside-2_2018_11569" maskUnits="userSpaceOnUse" x="156.602" y="33.9267" width="9.86948" height="10.3158" fill="black">
<rect fill="white" x="156.602" y="33.9267" width="9.86948" height="10.3158"/>
<path d="M160.639 39.273L157.877 38.848L157.986 37.8432L160.748 38.2681L161.054 35.4605L162.17 35.6323L161.865 38.4399L164.553 38.8536L164.444 39.8585L161.755 39.4448L161.445 42.2968L160.328 42.125L160.639 39.273Z"/>
</mask>
<path d="M160.639 39.273L157.877 38.848L157.986 37.8432L160.748 38.2681L161.054 35.4605L162.17 35.6323L161.865 38.4399L164.553 38.8536L164.444 39.8585L161.755 39.4448L161.445 42.2968L160.328 42.125L160.639 39.273Z" fill="#9278FF"/>
<path d="M160.639 39.273L161.373 39.386L161.454 38.6472L160.719 38.5341L160.639 39.273ZM157.877 38.848L157.142 38.735L157.062 39.4739L157.796 39.5869L157.877 38.848ZM157.986 37.8432L158.067 37.1043L157.332 36.9913L157.252 37.7302L157.986 37.8432ZM160.748 38.2681L160.668 39.007L161.402 39.12L161.483 38.3812L160.748 38.2681ZM161.054 35.4605L161.134 34.7216L160.4 34.6086L160.319 35.3474L161.054 35.4605ZM162.17 35.6323L162.905 35.7453L162.985 35.0064L162.251 34.8934L162.17 35.6323ZM161.865 38.4399L161.13 38.3269L161.05 39.0658L161.784 39.1788L161.865 38.4399ZM164.553 38.8536L165.288 38.9666L165.368 38.2278L164.634 38.1147L164.553 38.8536ZM164.444 39.8585L164.363 40.5973L165.098 40.7103L165.178 39.9715L164.444 39.8585ZM161.755 39.4448L161.836 38.7059L161.101 38.5929L161.021 39.3318L161.755 39.4448ZM161.445 42.2968L161.364 43.0357L162.099 43.1487L162.179 42.4098L161.445 42.2968ZM160.328 42.125L159.594 42.012L159.513 42.7508L160.248 42.8639L160.328 42.125ZM160.719 38.5341L157.957 38.1092L157.796 39.5869L160.558 40.0119L160.719 38.5341ZM158.611 38.9611L158.721 37.9562L157.252 37.7302L157.142 38.735L158.611 38.9611ZM157.906 38.582L160.668 39.007L160.829 37.5293L158.067 37.1043L157.906 38.582ZM161.483 38.3812L161.788 35.5735L160.319 35.3474L160.014 38.1551L161.483 38.3812ZM160.973 36.1993L162.09 36.3711L162.251 34.8934L161.134 34.7216L160.973 36.1993ZM161.436 35.5192L161.13 38.3269L162.599 38.553L162.905 35.7453L161.436 35.5192ZM161.784 39.1788L164.473 39.5925L164.634 38.1147L161.945 37.7011L161.784 39.1788ZM163.819 38.7406L163.709 39.7454L165.178 39.9715L165.288 38.9666L163.819 38.7406ZM164.524 39.1196L161.836 38.7059L161.675 40.1837L164.363 40.5973L164.524 39.1196ZM161.021 39.3318L160.71 42.1838L162.179 42.4098L162.49 39.5578L161.021 39.3318ZM161.525 41.5579L160.409 41.3861L160.248 42.8639L161.364 43.0357L161.525 41.5579ZM161.063 42.238L161.373 39.386L159.904 39.16L159.594 42.012L161.063 42.238Z" fill="#9278FF" mask="url(#path-3-outside-2_2018_11569)"/>
<mask id="path-5-outside-3_2018_11569" maskUnits="userSpaceOnUse" x="178.845" y="11.9106" width="9.86948" height="10.3158" fill="black">
<rect fill="white" x="178.845" y="11.9106" width="9.86948" height="10.3158"/>
<path d="M182.882 17.2569L180.12 16.8319L180.229 15.8271L182.991 16.252L183.297 13.4444L184.414 13.6161L184.108 16.4238L186.796 16.8375L186.687 17.8423L183.998 17.4287L183.688 20.2807L182.571 20.1089L182.882 17.2569Z"/>
</mask>
<path d="M182.882 17.2569L180.12 16.8319L180.229 15.8271L182.991 16.252L183.297 13.4444L184.414 13.6161L184.108 16.4238L186.796 16.8375L186.687 17.8423L183.998 17.4287L183.688 20.2807L182.571 20.1089L182.882 17.2569Z" fill="#9278FF"/>
<path d="M182.882 17.2569L183.616 17.3699L183.697 16.631L182.962 16.518L182.882 17.2569ZM180.12 16.8319L179.385 16.7189L179.305 17.4578L180.039 17.5708L180.12 16.8319ZM180.229 15.8271L180.31 15.0882L179.575 14.9752L179.495 15.714L180.229 15.8271ZM182.991 16.252L182.911 16.9909L183.645 17.1039L183.726 16.3651L182.991 16.252ZM183.297 13.4444L183.377 12.7055L182.643 12.5925L182.562 13.3313L183.297 13.4444ZM184.414 13.6161L185.148 13.7292L185.229 12.9903L184.494 12.8773L184.414 13.6161ZM184.108 16.4238L183.373 16.3108L183.293 17.0497L184.027 17.1627L184.108 16.4238ZM186.796 16.8375L187.531 16.9505L187.611 16.2117L186.877 16.0986L186.796 16.8375ZM186.687 17.8423L186.607 18.5812L187.341 18.6942L187.422 17.9554L186.687 17.8423ZM183.998 17.4287L184.079 16.6898L183.344 16.5768L183.264 17.3157L183.998 17.4287ZM183.688 20.2807L183.608 21.0195L184.342 21.1326L184.423 20.3937L183.688 20.2807ZM182.571 20.1089L181.837 19.9959L181.756 20.7347L182.491 20.8478L182.571 20.1089ZM182.962 16.518L180.2 16.0931L180.039 17.5708L182.801 17.9957L182.962 16.518ZM180.854 16.9449L180.964 15.9401L179.495 15.714L179.385 16.7189L180.854 16.9449ZM180.149 16.5659L182.911 16.9909L183.072 15.5132L180.31 15.0882L180.149 16.5659ZM183.726 16.3651L184.032 13.5574L182.562 13.3313L182.257 16.139L183.726 16.3651ZM183.217 14.1832L184.333 14.355L184.494 12.8773L183.377 12.7055L183.217 14.1832ZM183.679 13.5031L183.373 16.3108L184.842 16.5368L185.148 13.7292L183.679 13.5031ZM184.027 17.1627L186.716 17.5764L186.877 16.0986L184.188 15.685L184.027 17.1627ZM186.062 16.7245L185.952 17.7293L187.422 17.9554L187.531 16.9505L186.062 16.7245ZM186.767 17.1035L184.079 16.6898L183.918 18.1675L186.607 18.5812L186.767 17.1035ZM183.264 17.3157L182.953 20.1677L184.423 20.3937L184.733 17.5417L183.264 17.3157ZM183.768 19.5418L182.652 19.37L182.491 20.8478L183.608 21.0195L183.768 19.5418ZM183.306 20.2219L183.616 17.3699L182.147 17.1439L181.837 19.9959L183.306 20.2219Z" fill="#9278FF" mask="url(#path-5-outside-3_2018_11569)"/>
<mask id="path-7-outside-4_2018_11569" maskUnits="userSpaceOnUse" x="193.845" y="56.9106" width="9.86948" height="10.3158" fill="black">
<rect fill="white" x="193.845" y="56.9106" width="9.86948" height="10.3158"/>
<path d="M197.882 62.2569L195.12 61.8319L195.229 60.8271L197.991 61.252L198.297 58.4444L199.414 58.6161L199.108 61.4238L201.796 61.8375L201.687 62.8423L198.998 62.4287L198.688 65.2807L197.571 65.1089L197.882 62.2569Z"/>
</mask>
<path d="M197.882 62.2569L195.12 61.8319L195.229 60.8271L197.991 61.252L198.297 58.4444L199.414 58.6161L199.108 61.4238L201.796 61.8375L201.687 62.8423L198.998 62.4287L198.688 65.2807L197.571 65.1089L197.882 62.2569Z" fill="#9278FF"/>
<path d="M197.882 62.2569L198.616 62.3699L198.697 61.631L197.962 61.518L197.882 62.2569ZM195.12 61.8319L194.385 61.7189L194.305 62.4578L195.039 62.5708L195.12 61.8319ZM195.229 60.8271L195.31 60.0882L194.575 59.9752L194.495 60.714L195.229 60.8271ZM197.991 61.252L197.911 61.9909L198.645 62.1039L198.726 61.3651L197.991 61.252ZM198.297 58.4444L198.377 57.7055L197.643 57.5925L197.562 58.3313L198.297 58.4444ZM199.414 58.6161L200.148 58.7292L200.229 57.9903L199.494 57.8773L199.414 58.6161ZM199.108 61.4238L198.373 61.3108L198.293 62.0497L199.027 62.1627L199.108 61.4238ZM201.796 61.8375L202.531 61.9505L202.611 61.2117L201.877 61.0986L201.796 61.8375ZM201.687 62.8423L201.607 63.5812L202.341 63.6942L202.422 62.9554L201.687 62.8423ZM198.998 62.4287L199.079 61.6898L198.344 61.5768L198.264 62.3157L198.998 62.4287ZM198.688 65.2807L198.608 66.0195L199.342 66.1326L199.423 65.3937L198.688 65.2807ZM197.571 65.1089L196.837 64.9959L196.756 65.7347L197.491 65.8478L197.571 65.1089ZM197.962 61.518L195.2 61.0931L195.039 62.5708L197.801 62.9957L197.962 61.518ZM195.854 61.9449L195.964 60.9401L194.495 60.714L194.385 61.7189L195.854 61.9449ZM195.149 61.5659L197.911 61.9909L198.072 60.5132L195.31 60.0882L195.149 61.5659ZM198.726 61.3651L199.032 58.5574L197.562 58.3313L197.257 61.139L198.726 61.3651ZM198.217 59.1832L199.333 59.355L199.494 57.8773L198.377 57.7055L198.217 59.1832ZM198.679 58.5031L198.373 61.3108L199.842 61.5368L200.148 58.7292L198.679 58.5031ZM199.027 62.1627L201.716 62.5764L201.877 61.0986L199.188 60.685L199.027 62.1627ZM201.062 61.7245L200.952 62.7293L202.422 62.9554L202.531 61.9505L201.062 61.7245ZM201.767 62.1035L199.079 61.6898L198.918 63.1675L201.607 63.5812L201.767 62.1035ZM198.264 62.3157L197.953 65.1677L199.423 65.3937L199.733 62.5417L198.264 62.3157ZM198.768 64.5418L197.652 64.37L197.491 65.8478L198.608 66.0195L198.768 64.5418ZM198.306 65.2219L198.616 62.3699L197.147 62.1439L196.837 64.9959L198.306 65.2219Z" fill="#9278FF" mask="url(#path-7-outside-4_2018_11569)"/>
<path d="M22.0959 -39.8191C56.414 -39.3768 54.5144 -17.6953 88.9152 -18.79C139.039 -20.3852 157.629 34.3086 206.796 23.7396C277.067 8.6339 300.87 37.5688 334.795 38.2258" stroke="#9278FF"/>
<path d="M20.3972 -26.134C54.7153 -25.6917 52.8156 -4.01022 87.2164 -5.10499C137.34 -6.70012 155.93 47.9936 205.097 37.4246C275.368 22.319 299.171 51.2538 333.096 51.9108" stroke="#9278FF"/>
<path d="M18.6984 -12.4485C53.0166 -12.0062 51.1169 9.67533 85.5177 8.58056C135.642 6.98543 154.231 61.6792 203.398 51.1102C273.669 36.0045 297.472 64.9394 331.397 65.5964" stroke="#9278FF"/>
<path d="M16.9997 1.23804C51.3178 1.68037 49.4182 23.3618 83.819 22.2671C133.943 20.6719 152.533 75.3657 201.699 64.7967C271.971 49.691 295.773 78.6259 329.698 79.2829" stroke="#9278FF"/>
</g>
</svg>
