<svg width="111" height="80" viewBox="0 0 111 80" fill="none" xmlns="http://www.w3.org/2000/svg">
<g opacity="0.4">
<path d="M6.02417 -16C7.51279 -7.64443 16.9097 9.39727 42.5884 10.7195C68.2671 12.0417 81.9439 36.7962 85.5724 49.0082C86.9679 55.0683 93.4993 67.7394 108.46 69.943C123.421 72.1467 135.72 70.8612 140 69.943" stroke="url(#paint0_linear_1581_5562)" stroke-width="0.606987"/>
<path d="M1 -7.73633C2.48862 0.619246 11.8855 17.6609 37.5643 18.9831C63.243 20.3053 76.9197 45.0599 80.5482 57.2719C81.9438 63.332 88.4751 76.0031 103.436 78.2067C118.396 80.4104 130.696 79.1249 134.976 78.2067" stroke="url(#paint1_linear_1581_5562)" stroke-width="0.606987"/>
<mask id="path-3-outside-1_1581_5562" maskUnits="userSpaceOnUse" x="67.9878" y="35.4805" width="7" height="8" fill="black">
<rect fill="white" x="67.9878" y="35.4805" width="7" height="8"/>
<path d="M71.0956 42.3879V39.9721H68.7405V39.4258H71.0956V37.0221H71.7026V39.4258H74.0212V39.9721H71.7026V42.3879H71.0956Z"/>
</mask>
<path d="M71.0956 42.3879V39.9721H68.7405V39.4258H71.0956V37.0221H71.7026V39.4258H74.0212V39.9721H71.7026V42.3879H71.0956Z" fill="url(#paint2_linear_1581_5562)"/>
<path d="M71.0956 42.3879H70.4886V42.9949H71.0956V42.3879ZM71.0956 39.9721H71.7026V39.3651H71.0956V39.9721ZM68.7405 39.9721H68.1335V40.5791H68.7405V39.9721ZM68.7405 39.4258V38.8188H68.1335V39.4258H68.7405ZM71.0956 39.4258V40.0328H71.7026V39.4258H71.0956ZM71.0956 37.0221V36.4151H70.4886V37.0221H71.0956ZM71.7026 37.0221H72.3095V36.4151H71.7026V37.0221ZM71.7026 39.4258H71.0956V40.0328H71.7026V39.4258ZM74.0212 39.4258H74.6282V38.8188H74.0212V39.4258ZM74.0212 39.9721V40.5791H74.6282V39.9721H74.0212ZM71.7026 39.9721V39.3651H71.0956V39.9721H71.7026ZM71.7026 42.3879V42.9949H72.3095V42.3879H71.7026ZM71.7026 42.3879V39.9721H70.4886V42.3879H71.7026ZM71.0956 39.3651H68.7405V40.5791H71.0956V39.3651ZM69.3474 39.9721V39.4258H68.1335V39.9721H69.3474ZM68.7405 40.0328H71.0956V38.8188H68.7405V40.0328ZM71.7026 39.4258V37.0221H70.4886V39.4258H71.7026ZM71.0956 37.6291H71.7026V36.4151H71.0956V37.6291ZM71.0956 37.0221V39.4258H72.3095V37.0221H71.0956ZM71.7026 40.0328H74.0212V38.8188H71.7026V40.0328ZM73.4143 39.4258V39.9721H74.6282V39.4258H73.4143ZM74.0212 39.3651H71.7026V40.5791H74.0212V39.3651ZM71.0956 39.9721V42.3879H72.3095V39.9721H71.0956ZM71.7026 41.7809H71.0956V42.9949H71.7026V41.7809Z" fill="url(#paint3_linear_1581_5562)" mask="url(#path-3-outside-1_1581_5562)"/>
<mask id="path-5-outside-2_1581_5562" maskUnits="userSpaceOnUse" x="42.9133" y="37.4788" width="8.76587" height="9.43577" fill="black">
<rect fill="white" x="42.9133" y="37.4788" width="8.76587" height="9.43577"/>
<path d="M46.1992 44.9202L46.7944 42.5789L44.5083 42.0129L44.6429 41.4834L46.929 42.0494L47.5212 39.7199L48.1104 39.8658L47.5182 42.1953L49.7689 42.7526L49.6343 43.282L47.3836 42.7248L46.7884 45.0661L46.1992 44.9202Z"/>
</mask>
<path d="M46.1992 44.9202L46.7944 42.5789L44.5083 42.0129L44.6429 41.4834L46.929 42.0494L47.5212 39.7199L48.1104 39.8658L47.5182 42.1953L49.7689 42.7526L49.6343 43.282L47.3836 42.7248L46.7884 45.0661L46.1992 44.9202Z" fill="url(#paint4_linear_1581_5562)"/>
<path d="M46.1992 44.9202L45.61 44.7743L45.4605 45.3626L46.0497 45.5085L46.1992 44.9202ZM46.7944 42.5789L47.3836 42.7248L47.5332 42.1365L46.944 41.9906L46.7944 42.5789ZM44.5083 42.0129L43.9191 41.867L43.7696 42.4552L44.3588 42.6011L44.5083 42.0129ZM44.6429 41.4834L44.7925 40.8951L44.2033 40.7492L44.0537 41.3375L44.6429 41.4834ZM46.929 42.0494L46.7795 42.6377L47.3687 42.7836L47.5182 42.1953L46.929 42.0494ZM47.5212 39.7199L47.6708 39.1316L47.0816 38.9857L46.932 39.574L47.5212 39.7199ZM48.1104 39.8658L48.6996 40.0116L48.8492 39.4234L48.26 39.2775L48.1104 39.8658ZM47.5182 42.1953L46.929 42.0494L46.7795 42.6377L47.3687 42.7836L47.5182 42.1953ZM49.7689 42.7526L50.3581 42.8985L50.5077 42.3102L49.9185 42.1643L49.7689 42.7526ZM49.6343 43.282L49.4848 43.8703L50.074 44.0162L50.2235 43.4279L49.6343 43.282ZM47.3836 42.7248L47.5332 42.1365L46.944 41.9906L46.7944 42.5789L47.3836 42.7248ZM46.7884 45.0661L46.6389 45.6544L47.228 45.8003L47.3776 45.212L46.7884 45.0661ZM46.7884 45.0661L47.3836 42.7248L46.2052 42.433L45.61 44.7743L46.7884 45.0661ZM46.944 41.9906L44.6579 41.4246L44.3588 42.6011L46.6449 43.1672L46.944 41.9906ZM45.0975 42.1587L45.2321 41.6293L44.0537 41.3375L43.9191 41.867L45.0975 42.1587ZM44.4934 42.0717L46.7795 42.6377L47.0786 41.4612L44.7925 40.8951L44.4934 42.0717ZM47.5182 42.1953L48.1104 39.8658L46.932 39.574L46.3398 41.9036L47.5182 42.1953ZM47.3717 40.3081L47.9609 40.454L48.26 39.2775L47.6708 39.1316L47.3717 40.3081ZM47.5212 39.7199L46.929 42.0494L48.1074 42.3412L48.6996 40.0116L47.5212 39.7199ZM47.3687 42.7836L49.6194 43.3409L49.9185 42.1643L47.6678 41.607L47.3687 42.7836ZM49.1797 42.6067L49.0451 43.1362L50.2235 43.4279L50.3581 42.8985L49.1797 42.6067ZM49.7839 42.6938L47.5332 42.1365L47.2341 43.313L49.4848 43.8703L49.7839 42.6938ZM46.7944 42.5789L46.1992 44.9202L47.3776 45.212L47.9728 42.8707L46.7944 42.5789ZM46.938 44.4778L46.3488 44.3319L46.0497 45.5085L46.6389 45.6544L46.938 44.4778Z" fill="url(#paint5_linear_1581_5562)" mask="url(#path-5-outside-2_1581_5562)"/>
<mask id="path-7-outside-3_1581_5562" maskUnits="userSpaceOnUse" x="15.8778" y="11.6649" width="10.5969" height="10.561" fill="black">
<rect fill="white" x="15.8778" y="11.6649" width="10.5969" height="10.561"/>
<path d="M18.9617 18.8774L20.5539 17.0605L18.7626 15.5316L19.1226 15.1207L20.914 16.6497L22.4982 14.8419L22.9599 15.236L21.3756 17.0437L23.1393 18.549L22.7792 18.9599L21.0156 17.4546L19.4234 19.2714L18.9617 18.8774Z"/>
</mask>
<path d="M18.9617 18.8774L20.5539 17.0605L18.7626 15.5316L19.1226 15.1207L20.914 16.6497L22.4982 14.8419L22.9599 15.236L21.3756 17.0437L23.1393 18.549L22.7792 18.9599L21.0156 17.4546L19.4234 19.2714L18.9617 18.8774Z" fill="url(#paint6_linear_1581_5562)"/>
<path d="M18.9617 18.8774L18.5 18.4833L18.1 18.9398L18.5616 19.3339L18.9617 18.8774ZM20.5539 17.0605L21.0156 17.4546L21.4156 16.9981L20.954 16.604L20.5539 17.0605ZM18.7626 15.5316L18.3009 15.1375L17.9009 15.594L18.3625 15.9881L18.7626 15.5316ZM19.1226 15.1207L19.5227 14.6642L19.061 14.2702L18.661 14.7267L19.1226 15.1207ZM20.914 16.6497L20.5139 17.1062L20.9756 17.5002L21.3756 17.0437L20.914 16.6497ZM22.4982 14.8419L22.8982 14.3854L22.4365 13.9914L22.0365 14.4479L22.4982 14.8419ZM22.9599 15.236L23.4215 15.6301L23.8216 15.1736L23.3599 14.7795L22.9599 15.236ZM21.3756 17.0437L20.914 16.6497L20.5139 17.1062L20.9756 17.5002L21.3756 17.0437ZM23.1393 18.549L23.6009 18.9431L24.001 18.4866L23.5393 18.0925L23.1393 18.549ZM22.7792 18.9599L22.3792 19.4164L22.8408 19.8104L23.2409 19.3539L22.7792 18.9599ZM21.0156 17.4546L21.4156 16.9981L20.954 16.604L20.5539 17.0605L21.0156 17.4546ZM19.4234 19.2714L19.0233 19.7279L19.485 20.122L19.8851 19.6655L19.4234 19.2714ZM19.4234 19.2714L21.0156 17.4546L20.0922 16.6665L18.5 18.4833L19.4234 19.2714ZM20.954 16.604L19.1626 15.0751L18.3625 15.9881L20.1539 17.517L20.954 16.604ZM19.2243 15.9256L19.5843 15.5148L18.661 14.7267L18.3009 15.1375L19.2243 15.9256ZM18.7226 15.5772L20.5139 17.1062L21.314 16.1932L19.5227 14.6642L18.7226 15.5772ZM21.3756 17.0437L22.9599 15.236L22.0365 14.4479L20.4523 16.2556L21.3756 17.0437ZM22.0981 15.2984L22.5598 15.6925L23.3599 14.7795L22.8982 14.3854L22.0981 15.2984ZM22.4982 14.8419L20.914 16.6497L21.8373 17.4378L23.4215 15.6301L22.4982 14.8419ZM20.9756 17.5002L22.7392 19.0055L23.5393 18.0925L21.7757 16.5872L20.9756 17.5002ZM22.6776 18.155L22.3175 18.5658L23.2409 19.3539L23.6009 18.9431L22.6776 18.155ZM23.1793 18.5034L21.4156 16.9981L20.6155 17.9111L22.3792 19.4164L23.1793 18.5034ZM20.5539 17.0605L18.9617 18.8774L19.8851 19.6655L21.4773 17.8486L20.5539 17.0605ZM19.8234 18.8149L19.3618 18.4209L18.5616 19.3339L19.0233 19.7279L19.8234 18.8149Z" fill="url(#paint7_linear_1581_5562)" mask="url(#path-7-outside-3_1581_5562)"/>
</g>
<defs>
<linearGradient id="paint0_linear_1581_5562" x1="-3.86943" y1="-21.7435" x2="156.998" y2="76.0072" gradientUnits="userSpaceOnUse">
<stop stop-color="#9278FF"/>
<stop offset="1" stop-color="#8065F3" stop-opacity="0.95"/>
</linearGradient>
<linearGradient id="paint1_linear_1581_5562" x1="-8.8936" y1="-13.4798" x2="151.974" y2="84.2708" gradientUnits="userSpaceOnUse">
<stop stop-color="#9278FF"/>
<stop offset="1" stop-color="#8065F3" stop-opacity="0.95"/>
</linearGradient>
<linearGradient id="paint2_linear_1581_5562" x1="67.4931" y1="31.5729" x2="78.1138" y2="33.6149" gradientUnits="userSpaceOnUse">
<stop stop-color="#9278FF"/>
<stop offset="1" stop-color="#8065F3" stop-opacity="0.95"/>
</linearGradient>
<linearGradient id="paint3_linear_1581_5562" x1="67.4931" y1="31.5729" x2="78.1138" y2="33.6149" gradientUnits="userSpaceOnUse">
<stop stop-color="#9278FF"/>
<stop offset="1" stop-color="#8065F3" stop-opacity="0.95"/>
</linearGradient>
<linearGradient id="paint4_linear_1581_5562" x1="45.3675" y1="33.5722" x2="55.1415" y2="38.1543" gradientUnits="userSpaceOnUse">
<stop stop-color="#9278FF"/>
<stop offset="1" stop-color="#8065F3" stop-opacity="0.95"/>
</linearGradient>
<linearGradient id="paint5_linear_1581_5562" x1="45.3675" y1="33.5722" x2="55.1415" y2="38.1543" gradientUnits="userSpaceOnUse">
<stop stop-color="#9278FF"/>
<stop offset="1" stop-color="#8065F3" stop-opacity="0.95"/>
</linearGradient>
<linearGradient id="paint6_linear_1581_5562" x1="23.3551" y1="8.40287" x2="29.9675" y2="16.8564" gradientUnits="userSpaceOnUse">
<stop stop-color="#9278FF"/>
<stop offset="1" stop-color="#8065F3" stop-opacity="0.95"/>
</linearGradient>
<linearGradient id="paint7_linear_1581_5562" x1="23.3551" y1="8.40287" x2="29.9675" y2="16.8564" gradientUnits="userSpaceOnUse">
<stop stop-color="#9278FF"/>
<stop offset="1" stop-color="#8065F3" stop-opacity="0.95"/>
</linearGradient>
</defs>
</svg>
