<svg width="174" height="55" viewBox="0 0 174 55" fill="none" xmlns="http://www.w3.org/2000/svg">
<g clip-path="url(#clip0_21_245)">
<path d="M-10.0002 25.0504C-1.94949 30.8032 19.6945 37.4064 41.8642 17.7971C64.034 -1.81226 95.4958 7.75784 108.455 14.9941C114.554 18.9116 130.273 24.1888 144.36 13.957C158.448 3.72525 167.499 -7.26413 170.263 -11.4798" stroke="#A48FFF" stroke-width="0.562675"/>
<path d="M-7.375 35.9793C0.675751 41.7321 22.3197 48.3353 44.4895 28.726C66.6592 9.11663 98.121 18.6867 111.081 25.923C117.179 29.8405 132.898 35.1177 146.986 24.8859C161.073 14.6541 170.124 3.66477 172.889 -0.550945" stroke="#A48FFF" stroke-width="0.562675"/>
<path d="M90.3827 20.9216L88.8136 19.3238L87.2559 20.8534L86.9011 20.4921L88.4588 18.9624L86.8976 17.3726L87.299 16.9784L88.8602 18.5682L90.3938 17.0622L90.7487 17.4235L89.215 18.9295L90.7841 20.5274L90.3827 20.9216Z" fill="#D8D0FF"/>
<path d="M71.8913 43.2181L70.7582 41.2865L68.8751 42.3911L68.6188 41.9543L70.5019 40.8497L69.3745 38.9278L69.8599 38.6431L70.9873 40.565L72.8413 39.4775L73.0975 39.9143L71.2435 41.0018L72.3766 42.9334L71.8913 43.2181Z" fill="#D8D0FF"/>
<path d="M28.3785 43.1844L28.2369 40.9494L26.0581 41.0874L26.0261 40.5821L28.2049 40.444L28.0641 38.2203L28.6256 38.1847L28.7665 40.4085L30.9116 40.2726L30.9436 40.778L28.7985 40.9139L28.94 43.1488L28.3785 43.1844Z" fill="#D8D0FF"/>
</g>
<defs>
<clipPath id="clip0_21_245">
<rect width="174" height="55" fill="white"/>
</clipPath>
</defs>
</svg>
